<svg width="40" height="40" viewBox="0 0 40 40" fill="none" xmlns="http://www.w3.org/2000/svg">
<path d="M29.8828 4.96094C28.5742 4.96094 27.2656 5.46875 26.25 6.48438L6.48438 26.25L6.40625 26.6406L5.03906 33.5156L4.64844 35.3516L6.48438 34.9609L13.3594 33.5938L13.75 33.5156L33.5156 13.75C35.5469 11.7188 35.5469 8.51562 33.5156 6.48438C32.5 5.46875 31.1914 4.96094 29.8828 4.96094ZM29.8828 7.34375C30.5127 7.34375 31.1475 7.63184 31.7578 8.24219C32.9736 9.45801 32.9736 10.7764 31.7578 11.9922L30.8594 12.8516L27.1484 9.14062L28.0078 8.24219C28.6182 7.63184 29.2529 7.34375 29.8828 7.34375ZM25.3906 10.8984L29.1016 14.6094L13.9844 29.7266C13.1641 28.125 11.875 26.8359 10.2734 26.0156L25.3906 10.8984ZM8.67188 28.0469C10.1709 28.6523 11.3477 29.8291 11.9531 31.3281L7.85156 32.1484L8.67188 28.0469Z" fill="#564154"/>
</svg>
