<svg width="40" height="40" viewBox="0 0 40 40" fill="none" xmlns="http://www.w3.org/2000/svg">
<path d="M18.75 5C18.0957 5 17.4268 5.22949 16.9531 5.70312C16.4795 6.17676 16.25 6.8457 16.25 7.5V8.75H8.75V11.25H10V31.25C10 33.3057 11.6943 35 13.75 35H28.75C30.8057 35 32.5 33.3057 32.5 31.25V11.25H33.75V8.75H26.25V7.5C26.25 6.8457 26.0205 6.17676 25.5469 5.70312C25.0732 5.22949 24.4043 5 23.75 5H18.75ZM18.75 7.5H23.75V8.75H18.75V7.5ZM12.5 11.25H30V31.25C30 31.9434 29.4434 32.5 28.75 32.5H13.75C13.0566 32.5 12.5 31.9434 12.5 31.25V11.25ZM15 15V28.75H17.5V15H15ZM20 15V28.75H22.5V15H20ZM25 15V28.75H27.5V15H25Z" fill="#564154"/>
</svg>
