<svg width="96" height="96" viewBox="0 0 96 96" fill="none" xmlns="http://www.w3.org/2000/svg">
<path d="M19.5156 59.3175C20.3976 58.8075 21.4206 58.515 22.5126 58.515C25.8246 58.515 28.5096 61.2 28.5096 64.512C28.5096 66.303 27.7236 67.911 26.4786 69.0105" fill="url(#paint0_linear)"/>
<path d="M69.5232 69.0105C68.2767 67.911 67.4922 66.303 67.4922 64.512C67.4922 61.2 70.1772 58.515 73.4892 58.515C74.5827 58.515 75.6072 58.8075 76.4892 59.319" fill="url(#paint1_linear)"/>
<path d="M78.5625 15.1515C58.572 6.9495 37.4325 6.9495 17.4435 15.1515L16.5 15.5325V48.021C16.5 62.52 26.25 75.159 40.5 78.5745V79.503C40.5 83.637 43.8675 87 48 87C52.1325 87 55.5 83.637 55.5 79.5045V78.576C69.75 75.159 79.5 62.5215 79.5 48.0225V15.5325L78.5625 15.1515ZM52.5 79.5045C52.5 81.984 50.4795 84.0015 48 84.0015C45.5205 84.0015 43.5 81.984 43.5 79.5045V76.506C43.5 75.678 44.175 75 45.0015 75H50.9985C51.825 75 52.5 75.678 52.5 76.506V79.5045ZM55.386 75.5115C54.933 73.5075 53.1375 72 50.9985 72H45.0015C42.8625 72 41.067 73.5075 40.614 75.5115C28.29 72.213 19.5 60.9345 19.5 48.021V32.508C26.25 29.268 33.75 29.2245 40.5 32.4465V49.5195C40.5 52.827 43.5 55.5165 46.5 55.5165V58.515C46.5 60.9945 44.484 63 42.003 63H39.0045C38.178 63 37.5 62.3415 37.5 61.5135V58.5H34.5V61.5135C34.5 63.9945 36.525 66 39.0045 66H42.003C44.463 66 46.632 64.7925 48 62.955C49.368 64.791 51.5355 66 53.997 66H56.9955C59.475 66 61.5 63.9945 61.5 61.5135V58.5H58.5V61.5135C58.5 62.3415 57.822 63 56.9955 63H53.997C51.516 63 49.5 60.996 49.5 58.515V55.5165C52.5 55.5165 55.4955 52.5 55.4955 49.5H52.497C52.497 51 51.1515 52.5 49.4985 52.5H46.5C44.8485 52.5 43.5 51.1725 43.5 49.5195V30.6315L42.7005 30.207C35.4495 26.3415 27 26.0145 19.5 29.2125V17.55C38.25 10.1565 57.75 10.1565 76.5 17.55V29.214C69 26.016 60.546 26.3415 53.2995 30.207L52.5 30.6315V37.5H55.5V32.448C62.25 29.2275 69.75 29.274 76.5 32.5095V48.021C76.5 60.9345 67.71 72.213 55.386 75.5115Z" fill="url(#paint2_linear)"/>
<path d="M37.5057 39.0255C37.5057 35.718 34.8162 33.0285 31.5087 33.0285C28.2012 33.0285 25.5117 35.718 25.5117 39.0255C25.5117 42.333 28.2012 45.0225 31.5087 45.0225C34.8162 45.0225 37.5057 42.333 37.5057 39.0255ZM31.5087 42.024C29.8557 42.024 28.5102 40.6785 28.5102 39.0255C28.5102 37.3725 29.8557 36.027 31.5087 36.027C33.1617 36.027 34.5072 37.3725 34.5072 39.0255C34.5072 40.6785 33.1617 42.024 31.5087 42.024Z" fill="url(#paint3_linear)"/>
<path d="M64.4892 33.0285C61.1817 33.0285 58.4922 35.718 58.4922 39.0255C58.4922 42.333 61.1817 45.0225 64.4892 45.0225C67.7967 45.0225 70.4862 42.333 70.4862 39.0255C70.4862 35.718 67.7967 33.0285 64.4892 33.0285ZM64.4892 42.024C62.8362 42.024 61.4907 40.6785 61.4907 39.0255C61.4907 37.3725 62.8362 36.027 64.4892 36.027C66.1422 36.027 67.4877 37.3725 67.4877 39.0255C67.4877 40.6785 66.1422 42.024 64.4892 42.024Z" fill="url(#paint4_linear)"/>
<defs>
<linearGradient id="paint0_linear" x1="24.0114" y1="57.5159" x2="24.0114" y2="69.1614" gradientUnits="userSpaceOnUse">
<stop stop-color="#D952D9"/>
<stop offset="1" stop-color="#564154"/>
</linearGradient>
<linearGradient id="paint1_linear" x1="71.9895" y1="57.5159" x2="71.9895" y2="69.1614" gradientUnits="userSpaceOnUse">
<stop stop-color="#D952D9"/>
<stop offset="1" stop-color="#564154"/>
</linearGradient>
<linearGradient id="paint2_linear" x1="47.9916" y1="1.57456" x2="47.9916" y2="88.1215" gradientUnits="userSpaceOnUse">
<stop stop-color="#D952D9"/>
<stop offset="1" stop-color="#564154"/>
</linearGradient>
<linearGradient id="paint3_linear" x1="31.5071" y1="31.8867" x2="31.5071" y2="45.1949" gradientUnits="userSpaceOnUse">
<stop stop-color="#D952D9"/>
<stop offset="1" stop-color="#564154"/>
</linearGradient>
<linearGradient id="paint4_linear" x1="64.4876" y1="31.8867" x2="64.4876" y2="45.1949" gradientUnits="userSpaceOnUse">
<stop stop-color="#D952D9"/>
<stop offset="1" stop-color="#564154"/>
</linearGradient>
</defs>
</svg>
